<!--- 
    This file provides the SVG graphic for shelving units
-->

<svg xmlns="http://www.w3.org/2000/svg" width="21000" height="4000">

    <!--- reference scale is 1:12 where pixel to inch is 12:25 is an inch. Therefore, 1:25 is the current ratio of inch to pixels-->

    <style>

        <!-- .space {
            fill: gold;
            stroke: black;
            stroke-width: 2px;
        } -->
        #lb4shortshelf, #lb4tallshelf, #lb5shortshelf, #lb5tallshelf, #lb4rackshelf, #lb8rackshelf {
            fill: gold;
            stroke: black;
            stroke-width: 2px;
        }

        #lb4short4space, #lb4short5space, #lb4tall4space, #lb4tall5space, #lb5short4space, #lb5short5space, #lb5tall4space, #lb5tall5space, #lb4rackspace, #lb8rackspace {
          fill: blue;
          stroke: maroon;
          stroke-width: 2px;
        }

        #lbshortside, #lbtallside, #lbrackside {
            fill: red;
            stroke: purple;
            stroke-width: 2px;
        }

    </style>

    <defs>
        
        <rect id="lb4short4space" class="space" width="1100" height="515"  />
        <rect id="lb4short5space" class="space" width="1100" height="370"  />
        <rect id="lb4tall4space"  class="space" width="1050" height="600"  />
        <rect id="lb4tall5space"  class="space" width="1050" height="431"  />

        <rect id="lb5short4space" class="space" width="1400" height="515"  />        
        <rect id="lb5short5space" class="space" width="1400" height="370"  />
        <rect id="lb5tall4space"  class="space" width="1350" height="600"  />        
        <rect id="lb5tall5space"  class="space" width="1350" height="431"  />

        <rect id="lb4rackspace"   class="space" width="1200" height="950"  />
        <rect id="lb8rackspace"   class="space" width="2400" height="950"  />


        <rect id="lb4shortshelf"  class="shelf"  width="1100" height="50"  />
        <rect id="lb4tallshelf"   class="shelf"  width="1050" height="75"  />

        <rect id="lb5shortshelf"  class="shelf"  width="1400" height="50"  />
        <rect id="lb5tallshelf"   class="shelf"  width="1350" height="75"  />

        <rect id="lb4rackshelf"   class="shelf"  width="1200" height="100" />
        <rect id="lb8rackshelf"   class="shelf"  width="2400" height="100" />


        <rect id="lbshortside"    class="side"  width="50"   height="1800" />
        <rect id="lbtallside"     class="side"  width="75"   height="2100" />
        <rect id="lbrackside"     class="side"  width="75"   height="2100" />
    
    </defs>

<!--- Must create visible shelf in main group for all following units -->

    <svg xmlns="http://www.w3.org/2000/svg" id="lbshortshelf4x4" >

        <use href="#lbshortside"    x="0"    y="515"  />
        <use href="#lbshortside"    x="1150" y="515"  />
        <use href="#lb4short4space" x="50"   y="0"    />
        <use href="#lb4short4space" x="50"   y="565"  />
        <use href="#lb4short4space" x="50"   y="1130" />
        <use href="#lb4short4space" x="50"   y="1695" />

        <use href="#lb4shortshelf"  x="50"   y="515"  />
        <use href="#lb4shortshelf"  x="50"   y="1080" />
        <use href="#lb4shortshelf"  x="50"   y="1645" />
        <use href="#lb4shortshelf"  x="50"   y="2210" />        
        
    </svg>

    <g id="lbshortshelf4x5" transform="translate(2000,0)">

        <use href="#lbshortside"    x="0"    y="370"  />
        <use href="#lbshortside"    x="1150" y="370"  />
        <use href="#lb4short5space" x="50"   y="0"    />
        <use href="#lb4short5space" x="50"   y="420"  />
        <use href="#lb4short5space" x="50"   y="840"  />
        <use href="#lb4short5space" x="50"   y="1260" />
        <use href="#lb4short5space" x="50"   y="1680" />

        <use href="#lb4shortshelf" x="50" y="370" />
        <use href="#lb4shortshelf" x="50" y="790" />
        <use href="#lb4shortshelf" x="50" y="1210" />
        <use href="#lb4shortshelf" x="50" y="1630" />
        <use href="#lb4shortshelf" x="50" y="2050" />

    </g>

    <g id="lbshortshelf5x4" transform="translate(4000,0)">

        <use href="#lbshortside"    x="0"    y="515"  />
        <use href="#lbshortside"    x="1450" y="515"  />
        <use href="#lb5short4space" x="50"   y="0"    />
        <use href="#lb5short4space" x="50"   y="565"  />
        <use href="#lb5short4space" x="50"   y="1130" />
        <use href="#lb5short4space" x="50"   y="1695" />
    
        <use href="#lb5shortshelf"  x="50"   y="515"  />
        <use href="#lb5shortshelf"  x="50"   y="1080" />
        <use href="#lb5shortshelf"  x="50"   y="1645" />
        <use href="#lb5shortshelf"  x="50"   y="2210" />

    </g>

    <g id="lbshortshelf5x5" transform="translate(6000,0)">

        <use href="#lbshortside"    x="0"    y="370"  />
        <use href="#lbshortside"    x="1450" y="370"  />
        <use href="#lb5short5space" x="50"   y="0"    />
        <use href="#lb5short5space" x="50"   y="420"  />
        <use href="#lb5short5space" x="50"   y="840"  />
        <use href="#lb5short5space" x="50"   y="1260" />
        <use href="#lb5short5space" x="50"   y="1680" />

        <use href="#lb5shortshelf"  x="50"   y="370"  />
        <use href="#lb5shortshelf"  x="50"   y="790"  />
        <use href="#lb5shortshelf"  x="50"   y="1210" />
        <use href="#lb5shortshelf"  x="50"   y="1630" />
        <use href="#lb5shortshelf"  x="50"   y="2050" />

    </g>

    <g id="lbtallshelf4x4" transform="translate(8000,0)">

        <use href="#lbtallside"    x="0"    y="600"  />
        <use href="#lbtallside"    x="1125" y="600"  />
        <use href="#lb4tall4space" x="75"   y="0"    />
        <use href="#lb4tall4space" x="75"   y="675"  />
        <use href="#lb4tall4space" x="75"   y="1350" />
        <use href="#lb4tall4space" x="75"   y="2000" />
        
        <use href="#lb4tallshelf"  x="75"   y="600"  />
        <use href="#lb4tallshelf"  x="75"   y="1275" />
        <use href="#lb4tallshelf"  x="75"   y="1950" />
        <use href="#lb4tallshelf"  x="75"   y="2600" />
    </g>

    <g id="lbtallshelf4x5" transform="translate(10000,0)">

        <use href="#lbtallside"    x="0"    y="431"  />
        <use href="#lbtallside"    x="1125" y="431"  />
        <use href="#lb4tall5space" x="75"   y="0"    />
        <use href="#lb4tall5space" x="75"   y="506"  />
        <use href="#lb4tall5space" x="75"   y="1012" />
        <use href="#lb4tall5space" x="75"   y="1518" />
        <use href="#lb4tall5space" x="75"   y="2024" />

        <use href="#lb4tallshelf"  x="75"   y="431"  />
        <use href="#lb4tallshelf"  x="75"   y="937"  />
        <use href="#lb4tallshelf"  x="75"   y="1443" />
        <use href="#lb4tallshelf"  x="75"   y="1949" />
        <use href="#lb4tallshelf"  x="75"   y="2455" />

    </g>

    <g id="lbtallshelf5x4" transform="translate(12000,0)">

        <use href="#lbtallside"    x="0"    y="600"  />
        <use href="#lbtallside"    x="1425" y="600"  />
        <use href="#lb5tall4space" x="75"   y="0"    />
        <use href="#lb5tall4space" x="75"   y="675"  />
        <use href="#lb5tall4space" x="75"   y="1350" />
        <use href="#lb5tall4space" x="75"   y="2000" />

        <use href="#lb5tallshelf"  x="75"   y="600"  />
        <use href="#lb5tallshelf"  x="75"   y="1275" />
        <use href="#lb5tallshelf"  x="75"   y="1950" />
        <use href="#lb5tallshelf"  x="75"   y="2600" />

    </g>

    <g id="lbtallshelf5x5" transform="translate(14000,0)">

        <use href="#lbtallside"    x="0"    y="431"  />
        <use href="#lbtallside"    x="1425" y="431"  />
        <use href="#lb5tall5space" x="75"   y="0"    />
        <use href="#lb5tall5space" x="75"   y="506"  />
        <use href="#lb5tall5space" x="75"   y="1012" />
        <use href="#lb5tall5space" x="75"   y="1518" />
        <use href="#lb5tall5space" x="75"   y="2024" />

        <use href="#lb5tallshelf"  x="75"   y="431"  />
        <use href="#lb5tallshelf"  x="75"   y="937"  />
        <use href="#lb5tallshelf"  x="75"   y="1443" />
        <use href="#lb5tallshelf"  x="75"   y="1949" />
        <use href="#lb5tallshelf"  x="75"   y="2455" />

    </g>

    <g id="lb4rack" transform="translate(16000,0)">

        <use href="#lbrackside"   x="0"    y="950"  />
        <use href="#lbrackside"   x="1275" y="950"  />

        <!--- Label Group --> 
        <use href="#lb4rackshelf" x="75"   y="950"  />
        <use href="#lb4rackshelf" x="75"   y="2000" />
        
        <!--- Highlight Group -->
        <use href="#lb4rackspace" x="75"   y="0"    />
        <use href="#lb4rackspace" x="75"   y="1050" />
        <use href="#lb4rackspace" x="75"   y="2100" />

    </g>

    <g id="lb8rack" transform="translate(18000,0)">

        <use href="#lbrackside"   x="0"    y="950"  />
        <use href="#lbrackside"   x="2475" y="950"  />
        
        <!--- Label Group --> 
        <use href="#lb8rackshelf" x="75"   y="950"  />
        <use href="#lb8rackshelf" x="75"   y="2000" />

        <!--- Highlight Group -->
        <use href="#lb8rackspace" x="75"   y="0"    />
        <use href="#lb8rackspace" x="75"   y="1050" />
        <use href="#lb8rackspace" x="75"   y="2100" />

    </g>

</svg>